<svg version="1.1" id="Layer_1" xmlns="http://www.w3.org/2000/svg" xmlns:xlink="http://www.w3.org/1999/xlink" x="0px" y="0px"
	 width="100%" viewBox="0 0 590 210" enable-background="new 0 0 590 210" xml:space="preserve">
<path fill="#050F2A" opacity="1.000000" stroke="none" 
	d="
M422.000000,211.000000 
	C281.377136,211.000000 141.254257,211.000000 1.065692,211.000000 
	C1.065692,141.065720 1.065692,71.131355 1.065692,1.098499 
	C197.666672,1.098499 394.333344,1.098499 590.973511,1.098499 
	C590.973511,71.079002 590.973511,141.039505 590.973511,211.000000 
	C534.798035,211.000000 478.649017,211.000000 422.000000,211.000000 
M559.821777,102.235680 
	C558.391418,98.561195 556.961060,94.886711 555.208252,90.654938 
	C545.070801,80.200783 530.162659,80.738304 521.111328,92.194633 
	C519.451111,95.798660 517.790833,99.402679 515.781006,103.712303 
	C515.193115,108.142204 514.605225,112.572098 513.809570,117.911705 
	C513.934753,122.275848 514.059875,126.639992 514.086548,131.832581 
	C515.238647,136.596954 516.390747,141.361328 517.714539,146.846359 
	C518.777893,148.895248 519.706238,151.028763 520.928528,152.977951 
	C525.519836,160.299667 534.684326,164.293610 543.253174,162.699310 
	C552.236328,161.027893 558.525879,156.271286 560.961548,146.180832 
	C560.741577,144.056046 561.203674,141.471085 560.149719,139.909073 
	C558.348755,137.239975 555.760864,133.584381 553.204102,133.327927 
	C550.026794,133.009262 545.890686,135.008804 543.370361,137.318481 
	C540.572937,139.882126 540.735962,143.904938 543.659607,147.963120 
	C545.688965,149.649902 545.729492,150.995804 543.186401,152.308731 
	C538.706665,154.621445 535.151917,152.611954 532.148193,145.095245 
	C530.216553,135.877365 530.216553,135.877365 537.688904,132.889847 
	C544.815674,129.602951 551.117554,125.327065 555.751221,117.925461 
	C557.062073,112.954468 558.372925,107.983475 559.821777,102.235680 
M240.495529,103.352448 
	C241.099762,99.604591 241.704010,95.856735 242.762589,91.562981 
	C244.214203,87.807236 245.665817,84.051491 247.692001,79.915367 
	C252.968506,73.249382 254.858887,72.843498 261.086243,77.779556 
	C260.576599,78.804352 259.955658,79.789665 259.575928,80.860519 
	C257.571381,86.513603 259.711151,92.253242 264.337097,93.785522 
	C270.483643,95.821472 276.170563,92.782127 277.409119,86.180931 
	C277.956207,83.265182 277.034851,80.073906 276.748749,76.321854 
	C274.447693,70.955711 270.340088,67.614342 264.925934,65.699165 
	C253.201523,61.551804 240.991425,65.615219 232.958740,76.691673 
	C230.729065,81.795296 228.499405,86.898918 225.999313,92.760880 
	C225.453720,96.512466 224.908142,100.264046 224.125626,104.913704 
	C224.150085,108.944527 224.174545,112.975357 224.073975,117.868256 
	C224.731186,122.246017 225.388397,126.623779 225.975616,131.801559 
	C227.932892,136.970398 229.890152,142.139252 231.974213,147.977295 
	C242.018570,166.886612 269.248352,168.614502 277.828247,148.073212 
	C278.264648,142.716293 278.701050,137.359360 279.339569,131.209488 
	C279.010162,126.816574 278.680756,122.423660 278.584351,117.165405 
	C278.584351,114.412575 278.584351,111.659744 278.584351,108.380669 
	C269.659790,108.380669 261.108673,108.380669 252.254852,108.380669 
	C252.254852,111.449142 252.254852,114.729546 252.057114,118.763168 
	C251.864853,120.613060 251.672592,122.462944 251.444260,124.659805 
	C256.001984,124.045639 260.093536,123.494278 264.409515,122.912682 
	C265.022614,126.241928 265.553162,129.123016 265.954895,132.902328 
	C265.668945,137.268585 265.382996,141.634827 264.754700,146.635376 
	C261.720215,155.525284 253.525528,155.375122 248.899399,148.239288 
	C248.185715,147.138428 247.394424,146.087875 246.428421,144.356506 
	C244.860977,139.907745 243.293549,135.459000 241.736771,130.200577 
	C241.128067,125.801598 240.519379,121.402611 240.073578,116.089775 
	C240.087051,112.071114 240.100540,108.052452 240.495529,103.352448 
M407.067078,129.931549 
	C407.022186,134.613510 406.977295,139.295486 406.645966,144.746857 
	C406.330627,150.158524 406.015320,155.570206 405.673065,161.444366 
	C411.798584,161.021271 417.314758,160.640274 423.190033,160.234451 
	C422.518799,154.369186 421.918854,149.126572 421.487701,142.976944 
	C421.211548,138.323639 420.935394,133.670334 420.817383,128.109924 
	C420.599670,124.057327 420.381958,120.004730 420.400726,115.067184 
	C420.312744,111.710541 420.224792,108.353905 420.401123,104.171188 
	C420.451538,100.121712 420.501953,96.072235 420.787445,91.124306 
	C420.828217,87.417099 420.868958,83.709885 421.107147,79.164490 
	C421.399689,74.904465 421.692261,70.644447 421.970581,66.591896 
	C414.464203,66.591896 407.417847,66.591896 400.195251,66.591896 
	C399.660492,71.376953 399.183655,75.643494 398.303833,80.553314 
	C397.644287,84.374290 396.984711,88.195259 396.047302,92.765617 
	C395.122345,96.845406 394.197388,100.925194 392.997406,105.743439 
	C392.498108,107.784912 391.998840,109.826393 391.140869,112.481873 
	C390.401550,115.645172 389.662231,118.808472 388.460602,122.506050 
	C388.023621,123.623550 387.586639,124.741051 386.814026,126.716820 
	C385.935760,123.689743 385.401367,121.847862 384.928314,119.202545 
	C383.901520,114.470161 382.874725,109.737785 381.920624,104.193977 
	C381.118317,99.805595 380.316010,95.417221 379.553284,90.273872 
	C378.988617,86.851082 378.423981,83.428299 377.961029,79.157913 
	C377.498535,75.583572 377.036011,72.009232 376.555054,68.292191 
	C368.316864,68.292191 360.342499,68.292191 352.121613,68.292191 
	C352.452789,72.451462 352.753387,76.226936 352.892273,80.916557 
	C352.977539,84.945335 353.062836,88.974113 353.001404,93.924759 
	C353.054016,98.618843 353.106628,103.312935 353.011536,108.929596 
	C353.030884,113.953163 353.050262,118.976738 352.872650,124.872681 
	C352.712891,129.922379 352.553101,134.972092 352.174652,140.918579 
	C351.866608,146.653061 351.558533,152.387543 351.263336,157.882294 
	C357.725800,157.882294 363.785461,157.882294 370.025055,157.882294 
	C369.374481,151.574448 368.779633,145.807159 368.373505,139.234756 
	C368.179871,134.157379 367.986206,129.079987 367.939209,123.078743 
	C367.900513,118.055199 367.861816,113.031647 367.986145,107.288040 
	C367.986145,106.077309 367.986145,104.866577 367.986145,103.655853 
	C368.443542,103.367851 368.900940,103.079857 369.358368,102.791855 
	C369.669281,103.529541 369.980194,104.267227 370.309387,105.780075 
	C371.483093,110.537216 372.656799,115.294350 373.803833,120.890984 
	C374.896179,126.261536 375.988525,131.632095 377.001709,137.831604 
	C378.055450,143.801880 379.109222,149.772171 380.118042,155.487854 
	C385.922791,155.487854 391.149902,155.487854 396.420380,155.487854 
	C397.389557,149.092194 398.305817,143.045837 399.691925,136.398254 
	C400.630798,131.637390 401.569672,126.876511 402.855255,121.462074 
	C403.277344,118.322968 403.699432,115.183853 404.666748,111.837021 
	C404.802399,111.284340 404.938019,110.731651 405.689392,110.094261 
	C406.101776,110.122673 406.514160,110.151085 406.941772,111.012131 
	C407.019775,112.674988 407.097809,114.337852 407.041077,116.918823 
	C407.103210,120.950317 407.165375,124.981812 407.067078,129.931549 
M458.917725,130.924057 
	C458.951569,135.616501 458.985382,140.308945 458.802368,145.857071 
	C458.802368,150.441299 458.802368,155.025513 458.802368,159.875641 
	C463.436523,159.875641 467.989227,159.875641 472.731293,159.875641 
	C472.731293,154.842545 472.731293,149.923569 472.900848,144.085373 
	C472.846771,139.394836 472.792694,134.704285 472.916412,129.097946 
	C472.970337,124.740967 473.024261,120.383980 473.524506,115.426483 
	C475.424957,110.317032 477.325409,105.207581 479.870880,99.760475 
	C482.984772,96.094910 485.914246,97.765381 489.026245,100.821129 
	C490.043793,105.548828 491.061340,110.276535 491.935486,115.923195 
	C491.946838,120.282448 491.958221,124.641708 491.720276,129.774963 
	C491.285889,134.188019 490.851471,138.601074 490.126923,143.818192 
	C489.436035,148.495697 488.745148,153.173203 488.031219,158.006668 
	C493.225739,158.703583 497.940643,159.336151 503.229401,160.045731 
	C504.080078,154.095474 504.872528,148.552628 505.913452,142.160004 
	C506.163422,137.777359 506.413391,133.394730 506.879669,128.103134 
	C506.865753,123.736984 506.851868,119.370827 506.984863,114.116798 
	C506.290314,109.080673 505.595795,104.044548 504.944397,98.271225 
	C501.015839,87.548019 496.299469,83.017395 487.882843,84.093834 
	C483.339996,84.674843 479.121246,87.789848 475.282349,89.523979 
	C470.374847,85.037941 464.134674,88.334137 457.953125,86.999260 
	C458.230743,91.506439 458.461761,95.257339 458.459198,99.820709 
	C458.643951,105.214333 458.828674,110.607948 458.829620,116.915085 
	C458.915222,121.278671 459.000824,125.642258 458.917725,130.924057 
M320.395966,114.928688 
	C320.316193,119.618538 320.236420,124.308395 319.995422,129.875671 
	C319.900085,134.264603 319.804779,138.653519 319.386597,143.923004 
	C319.386597,149.649689 319.386597,155.376358 319.386597,161.462250 
	C324.425995,161.462250 329.612579,161.462250 335.290924,161.462250 
	C334.952759,155.157318 334.627777,149.097992 334.553070,142.142105 
	C334.386139,137.755829 334.219238,133.369537 334.263916,128.073730 
	C334.191498,123.381874 334.119049,118.690025 334.283997,113.162048 
	C334.485046,109.338547 334.686096,105.515045 335.763184,101.703003 
	C337.509399,101.757462 339.255615,101.811920 341.669006,102.061707 
	C346.152466,102.709297 346.152466,102.709297 346.444031,99.040947 
	C346.444031,94.824692 346.444031,90.608437 346.444031,86.497299 
	C342.121033,86.497299 338.864258,86.497299 335.335907,86.497299 
	C335.246826,84.583046 335.164032,82.803009 335.379822,80.259583 
	C335.736328,73.910599 336.092865,67.561607 336.438354,61.409260 
	C330.731262,61.409260 325.684753,61.409260 320.936401,61.409260 
	C320.936401,68.215149 320.936401,74.616982 320.749512,81.864731 
	C320.671356,83.456245 320.593201,85.047752 320.498047,86.985535 
	C316.942810,86.985535 313.730469,86.985535 310.224976,86.985535 
	C310.224976,92.073181 310.224976,96.791206 310.224976,101.292084 
	C313.950500,101.292084 317.397156,101.292084 320.752411,102.070534 
	C320.734894,106.063194 320.717407,110.055855 320.395966,114.928688 
M448.034973,115.139984 
	C448.144714,111.088638 448.254486,107.037300 448.690948,102.124847 
	C448.976410,97.565620 449.261871,93.006393 449.551544,88.379959 
	C443.267700,88.379959 437.251770,88.379959 430.735840,88.379959 
	C431.215485,93.528580 431.656799,98.265526 431.970734,103.912849 
	C432.278198,107.952072 432.585693,111.991287 432.724365,116.946411 
	C432.871582,121.633148 433.018768,126.319885 433.033447,131.927109 
	C433.121002,136.287857 433.208557,140.648621 433.129303,145.931091 
	C433.129303,151.165939 433.129303,156.400787 433.129303,161.997482 
	C437.044464,161.997482 440.683929,162.316742 444.212677,161.831192 
	C445.517731,161.651611 447.467438,159.645340 447.561371,158.358185 
	C447.883667,153.941803 447.514008,149.474930 447.674072,144.127808 
	C447.643219,139.754425 447.612366,135.381027 447.792542,130.096039 
	C447.814026,125.401512 447.835480,120.706993 448.034973,115.139984 
M288.952179,131.920258 
	C289.022797,136.281204 289.093414,140.642136 289.017334,145.928864 
	C289.017334,151.183273 289.017334,156.437683 289.017334,161.402527 
	C294.015442,161.402527 298.539886,161.402527 303.067444,161.402527 
	C303.067444,155.557205 303.067444,150.278900 303.305023,144.098129 
	C303.260529,139.751053 303.216003,135.403976 303.476746,130.295074 
	C303.555573,125.536865 303.634399,120.778648 303.918182,115.124115 
	C303.991333,110.743294 304.064484,106.362480 304.471954,101.120605 
	C304.779114,96.868912 305.086273,92.617226 305.394318,88.352997 
	C299.020142,88.352997 293.110138,88.352997 286.581360,88.352997 
	C287.065643,93.166641 287.510132,97.584984 287.806213,102.923805 
	C288.081177,107.298798 288.356171,111.673790 288.441803,116.862946 
	C288.664734,121.576256 288.887634,126.289574 288.952179,131.920258 
M181.713333,171.946152 
	C185.838516,166.310425 189.963699,160.674698 194.637482,154.590866 
	C196.396088,148.061417 198.154709,141.531967 200.227509,134.258453 
	C200.924286,129.208618 201.621063,124.158791 202.704514,118.403954 
	C203.084549,113.603363 203.464569,108.802773 204.025253,103.095329 
	C204.053879,99.396111 204.082520,95.696884 204.373169,91.188004 
	C204.325256,85.142471 204.277359,79.096931 204.487274,72.172562 
	C204.487274,66.904709 204.487274,61.636860 204.487274,55.053341 
	C193.234192,58.674583 185.628998,65.391579 177.299896,72.168312 
	C174.223770,74.698601 171.064423,77.135994 168.100113,79.791130 
	C166.048737,81.628555 164.277023,82.135017 161.505997,80.931953 
	C144.818268,73.686798 127.506042,72.728874 110.546280,78.907631 
	C103.338394,81.533592 98.271271,81.406738 92.935493,75.299988 
	C83.379013,68.244370 74.969254,59.362774 62.039555,55.334167 
	C62.039555,62.916656 62.039555,69.459259 61.850571,76.918877 
	C61.932037,81.946747 62.013504,86.974625 61.930447,92.911789 
	C62.061684,96.609741 62.192924,100.307693 62.192139,104.850677 
	C62.634640,109.232002 63.077141,113.613319 63.409515,118.785957 
	C64.478859,124.740936 65.548203,130.695908 66.627846,137.433945 
	C68.352531,143.077301 70.077225,148.720657 71.924713,155.043411 
	C75.552010,160.057373 79.179306,165.071320 83.085693,170.710648 
	C84.965698,172.321014 86.760834,174.044907 88.739098,175.523834 
	C104.998795,187.679367 123.631752,190.778275 143.223221,188.892822 
	C157.525269,187.516418 170.102234,181.467987 181.713333,171.946152 
M285.684662,68.532295 
	C286.898499,77.291115 294.194153,81.285652 300.907959,76.867393 
	C304.892365,74.245308 306.618835,69.539536 304.902313,65.111420 
	C303.334229,61.066307 300.317352,58.610832 295.827637,58.564083 
	C290.788849,58.511616 287.118500,61.924946 285.684662,68.532295 
M443.316132,59.108871 
	C441.191406,59.097649 438.938873,58.621628 436.966370,59.164024 
	C431.471710,60.674927 428.546722,66.512230 430.279266,71.792183 
	C432.023468,77.107620 438.113556,80.393936 443.095551,77.671898 
	C445.915741,76.130981 448.574890,72.685997 449.446259,69.577179 
	C450.654083,65.268028 448.046509,61.615131 443.316132,59.108871 
z"/>
<path fill="#DABFEA" opacity="1.000000" stroke="none" 
	d="
M71.801910,154.364014 
	C70.077225,148.720657 68.352531,143.077301 66.934830,136.699585 
	C73.587891,135.643250 79.940971,135.415573 86.275917,134.944138 
	C88.282936,134.794769 90.241539,133.994919 92.540756,133.660461 
	C100.295471,139.627274 105.586021,139.611969 113.914413,133.822250 
	C126.287750,133.916138 138.158203,133.998138 150.028000,133.939957 
	C151.388626,133.933304 152.745407,133.143417 154.407135,132.892212 
	C161.579147,139.604324 167.415115,139.840149 176.188568,134.087830 
	C184.361633,134.504898 192.137466,134.753708 199.913330,135.002518 
	C198.154709,141.531967 196.396088,148.061417 193.974670,154.646072 
	C191.349350,154.467529 189.387497,154.037811 187.424179,154.030991 
	C171.619461,153.976135 155.814438,154.000946 139.949402,153.625458 
	C135.824387,153.167587 131.759476,153.085663 127.245041,153.003860 
	C110.492241,153.002670 94.188644,152.953857 77.886063,153.060272 
	C75.855263,153.073547 73.829826,153.909332 71.801910,154.364014 
z"/>
<path fill="#BBBFEB" opacity="1.000000" stroke="none" 
	d="
M93.283966,75.891075 
	C98.271271,81.406738 103.338394,81.533592 110.546280,78.907631 
	C127.506042,72.728874 144.818268,73.686798 161.505997,80.931953 
	C164.277023,82.135017 166.048737,81.628555 168.100113,79.791130 
	C171.064423,77.135994 174.223770,74.698601 178.036743,72.153381 
	C187.258881,72.442764 195.744171,72.747086 204.229462,73.051407 
	C204.277359,79.096931 204.325256,85.142471 203.766113,91.593262 
	C156.137695,91.999847 109.116333,92.001175 62.094971,92.002495 
	C62.013504,86.974625 61.932037,81.946747 62.355263,76.463844 
	C73.001289,75.969566 83.142632,75.930321 93.283966,75.891075 
z"/>
<path fill="#C9BFEB" opacity="1.000000" stroke="none" 
	d="
M203.844589,104.002182 
	C203.464569,108.802773 203.084549,113.603363 202.022339,118.730194 
	C188.994339,119.039536 176.648529,119.022636 164.388214,118.685326 
	C167.251953,116.206314 170.030197,114.047714 173.088409,111.671585 
	C171.002304,111.144028 168.732101,110.342880 166.395996,110.022964 
	C160.134796,109.165543 155.593491,112.008354 151.735840,117.057800 
	C138.701096,117.025520 126.146278,117.123825 113.597404,116.895607 
	C111.350563,116.854736 109.128273,115.464111 107.093513,114.410202 
	C108.814644,113.622116 110.336906,113.120514 112.088013,112.543510 
	C102.796677,107.371269 95.904900,109.143829 89.413223,118.000198 
	C80.474861,117.998711 71.997253,117.996681 63.519646,117.994644 
	C63.077141,113.613319 62.634640,109.232002 62.706039,104.427582 
	C110.094818,104.003723 156.969711,104.002953 203.844589,104.002182 
z"/>
<path fill="#C3BFEC" opacity="1.000000" stroke="none" 
	d="
M203.934921,103.548752 
	C156.969711,104.002953 110.094818,104.003723 62.772049,104.005066 
	C62.192924,100.307693 62.061684,96.609741 62.012707,92.457138 
	C109.116333,92.001175 156.137695,91.999847 203.635101,91.998093 
	C204.082520,95.696884 204.053879,99.396111 203.934921,103.548752 
z"/>
<path fill="#EABEE8" opacity="1.000000" stroke="none" 
	d="
M181.066010,172.153580 
	C170.102234,181.467987 157.525269,187.516418 143.223221,188.892822 
	C123.631752,190.778275 104.998795,187.679367 88.739098,175.523834 
	C86.760834,174.044907 84.965698,172.321014 83.341560,170.226807 
	C92.139854,169.473145 100.682281,169.203339 109.473145,169.152542 
	C111.724197,173.880814 115.339188,176.277039 120.078697,176.981125 
	C126.569756,177.945435 130.876053,174.303253 134.441299,169.457687 
	C142.384872,178.937103 150.406631,178.948013 158.922272,169.832214 
	C166.637802,170.639359 173.851913,171.396469 181.066010,172.153580 
z"/>
<path fill="#E3BFE9" opacity="1.000000" stroke="none" 
	d="
M109.224709,168.933533 
	C100.682281,169.203339 92.139854,169.473145 83.202011,169.914124 
	C79.179306,165.071320 75.552010,160.057373 71.863312,154.703705 
	C73.829826,153.909332 75.855263,153.073547 77.886063,153.060272 
	C94.188644,152.953857 110.492241,153.002670 127.325294,153.362823 
	C128.083832,154.142609 128.241364,154.627151 128.551971,154.975021 
	C134.007416,161.084702 134.172363,167.532349 128.964569,171.952728 
	C123.777100,176.355881 117.900856,175.399857 112.492134,169.496078 
	C111.901733,168.851639 110.337341,169.099533 109.224709,168.933533 
z"/>
<path fill="#E4BFE9" opacity="1.000000" stroke="none" 
	d="
M181.389679,172.049866 
	C173.851913,171.396469 166.637802,170.639359 158.955444,169.500336 
	C158.248108,168.794342 157.815063,168.176743 157.797714,168.188202 
	C156.782776,168.858887 155.710159,169.484528 154.833878,170.315659 
	C150.389893,174.530655 145.162201,174.962021 140.391205,171.892624 
	C135.007019,168.428680 133.450684,158.928894 140.009521,154.001404 
	C155.814438,154.000946 171.619461,153.976135 187.424179,154.030991 
	C189.387497,154.037811 191.349350,154.467529 193.700378,154.870132 
	C189.963699,160.674698 185.838516,166.310425 181.389679,172.049866 
z"/>
<path fill="#BFBEEA" opacity="1.000000" stroke="none" 
	d="
M335.081207,81.022980 
	C335.164032,82.803009 335.246826,84.583046 335.335907,86.497299 
	C338.864258,86.497299 342.121033,86.497299 346.444031,86.497299 
	C346.444031,90.608437 346.444031,94.824692 345.928162,99.503448 
	C343.942139,100.599419 342.471985,101.232895 341.001831,101.866371 
	C339.255615,101.811920 337.509399,101.757462 335.088501,101.409698 
	C329.890503,101.174957 325.367188,101.233521 320.843842,101.292084 
	C317.397156,101.292084 313.950500,101.292084 310.224976,101.292084 
	C310.224976,96.791206 310.224976,92.073181 310.224976,86.985535 
	C313.730469,86.985535 316.942810,86.985535 320.498047,86.985535 
	C320.593201,85.047752 320.671356,83.456245 321.312256,81.434616 
	C326.277069,81.010658 330.679138,81.016823 335.081207,81.022980 
z"/>
<path fill="#BDBBE7" opacity="1.000000" stroke="none" 
	d="
M488.821808,100.069794 
	C485.914246,97.765381 482.984772,96.094910 479.151367,99.756073 
	C471.852142,99.503868 465.272461,99.256058 458.692780,99.008247 
	C458.461761,95.257339 458.230743,91.506439 457.953125,86.999260 
	C464.134674,88.334137 470.374847,85.037941 475.282349,89.523979 
	C479.121246,87.789848 483.339996,84.674843 487.882843,84.093834 
	C496.299469,83.017395 501.015839,87.548019 504.463348,98.636162 
	C498.928802,99.357330 493.875305,99.713562 488.821808,100.069794 
z"/>
<path fill="#D0BFEA" opacity="1.000000" stroke="none" 
	d="
M164.302719,119.005737 
	C176.648529,119.022636 188.994339,119.039536 201.828979,119.082695 
	C201.621063,124.158791 200.924286,129.208618 200.070404,134.630493 
	C192.137466,134.753708 184.361633,134.504898 176.264618,133.789307 
	C175.287781,132.983398 174.647095,132.383484 173.974197,132.344849 
	C165.667831,131.867935 162.112061,127.002251 164.302719,119.005737 
z"/>
<path fill="#F0BFE8" opacity="1.000000" stroke="none" 
	d="
M277.325317,148.705124 
	C269.248352,168.614502 242.018570,166.886612 232.177765,147.346039 
	C237.133865,146.147858 241.886444,145.580963 246.639008,145.014069 
	C247.394424,146.087875 248.185715,147.138428 248.899399,148.239288 
	C253.525528,155.375122 261.720215,155.525284 265.377258,146.317719 
	C269.791138,146.834167 274.487976,143.876953 277.325317,148.705124 
z"/>
<path fill="#F0BFE8" opacity="1.000000" stroke="none" 
	d="
M532.197144,145.925323 
	C535.151917,152.611954 538.706665,154.621445 543.186401,152.308731 
	C545.729492,150.995804 545.688965,149.649902 543.997070,147.550964 
	C549.800171,147.095398 555.265808,147.051956 560.731384,147.008514 
	C558.525879,156.271286 552.236328,161.027893 543.253174,162.699310 
	C534.684326,164.293610 525.519836,160.299667 520.928528,152.977951 
	C519.706238,151.028763 518.777893,148.895248 518.124390,146.456390 
	C523.088562,146.019409 527.642822,145.972366 532.197144,145.925323 
z"/>
<path fill="#DABFEA" opacity="1.000000" stroke="none" 
	d="
M555.148865,118.328522 
	C551.117554,125.327065 544.815674,129.602951 537.196716,132.538422 
	C535.180786,131.791046 533.663818,131.087265 532.132080,131.053558 
	C526.152283,130.921982 520.167786,131.002487 514.185059,131.004135 
	C514.059875,126.639992 513.934753,122.275848 514.378723,117.456039 
	C519.918884,117.001770 524.889832,117.003159 529.932861,117.445358 
	C530.004822,120.544327 530.004822,123.202499 530.004822,125.860664 
	C530.495361,126.081024 530.985962,126.301392 531.476501,126.521751 
	C535.025757,123.016907 538.575012,119.512062 542.523071,116.084236 
	C546.997559,116.883675 551.073242,117.606102 555.148865,118.328522 
z"/>
<path fill="#D0BFEA" opacity="1.000000" stroke="none" 
	d="
M63.464581,118.390305 
	C71.997253,117.996681 80.474861,117.998711 89.405228,118.375702 
	C86.913406,124.263329 89.661400,128.863037 92.222298,133.492752 
	C90.241539,133.994919 88.282936,134.794769 86.275917,134.944138 
	C79.940971,135.415573 73.587891,135.643250 66.929688,136.308075 
	C65.548203,130.695908 64.478859,124.740936 63.464581,118.390305 
z"/>
<path fill="#ADBCE9" opacity="1.000000" stroke="none" 
	d="
M261.235199,77.007469 
	C254.858887,72.843498 252.968506,73.249382 247.270447,79.712067 
	C244.617889,79.004700 242.378326,78.535316 240.158295,77.986877 
	C237.912521,77.432068 235.686081,76.798988 233.451172,76.200188 
	C240.991425,65.615219 253.201523,61.551804 264.925934,65.699165 
	C270.340088,67.614342 274.447693,70.955711 276.312317,76.663467 
	C270.995667,77.005882 266.115448,77.006676 261.235199,77.007469 
z"/>
<path fill="#DDBFE9" opacity="1.000000" stroke="none" 
	d="
M384.867004,120.005981 
	C385.401367,121.847862 385.935760,123.689743 386.814026,126.716820 
	C387.586639,124.741051 388.023621,123.623550 389.164490,122.244896 
	C394.081757,122.027702 398.295135,122.071671 402.508514,122.115639 
	C401.569672,126.876511 400.630798,131.637390 398.973511,136.698334 
	C391.196991,136.999817 384.138947,137.001236 377.080872,137.002640 
	C375.988525,131.632095 374.896179,126.261536 374.283325,120.458282 
	C378.130890,120.019043 381.498932,120.012512 384.867004,120.005981 
z"/>
<path fill="#B3BDEA" opacity="1.000000" stroke="none" 
	d="
M93.109726,75.595535 
	C83.142632,75.930321 73.001289,75.969566 62.449753,76.005341 
	C62.039555,69.459259 62.039555,62.916656 62.039555,55.334167 
	C74.969254,59.362774 83.379013,68.244370 93.109726,75.595535 
z"/>
<path fill="#C6BFEA" opacity="1.000000" stroke="none" 
	d="
M353.159241,108.007019 
	C353.106628,103.312935 353.054016,98.618843 353.533936,93.462921 
	C360.809845,92.999863 367.557587,93.131203 374.293579,92.907372 
	C376.052490,92.848923 377.774658,91.685036 379.513702,91.028847 
	C380.316010,95.417221 381.118317,99.805595 381.437744,104.598251 
	C377.400238,105.003334 373.845673,105.004135 370.291077,105.004929 
	C369.980194,104.267227 369.669281,103.529541 369.358368,102.791855 
	C368.900940,103.079857 368.443542,103.367851 367.986145,103.655853 
	C367.986145,104.866577 367.986145,106.077309 367.450592,107.646034 
	C362.329773,108.005028 357.744476,108.006020 353.159241,108.007019 
z"/>
<path fill="#E8BEE7" opacity="1.000000" stroke="none" 
	d="
M377.041290,137.417114 
	C384.138947,137.001236 391.196991,136.999817 398.738586,136.998932 
	C398.305817,143.045837 397.389557,149.092194 396.420380,155.487854 
	C391.149902,155.487854 385.922791,155.487854 380.118042,155.487854 
	C379.109222,149.772171 378.055450,143.801880 377.041290,137.417114 
z"/>
<path fill="#C6BFEA" opacity="1.000000" stroke="none" 
	d="
M420.552338,92.022758 
	C420.501953,96.072235 420.451538,100.121712 419.791199,104.584473 
	C410.545013,105.000175 401.908752,105.002579 393.272461,105.004982 
	C394.197388,100.925194 395.122345,96.845406 396.634033,92.388863 
	C404.997925,92.015656 412.775146,92.019203 420.552338,92.022758 
z"/>
<path fill="#BCC0EC" opacity="1.000000" stroke="none" 
	d="
M379.533508,90.651360 
	C377.774658,91.685036 376.052490,92.848923 374.293579,92.907372 
	C367.557587,93.131203 360.809845,92.999863 353.607300,93.001991 
	C353.062836,88.974113 352.977539,84.945335 353.438263,80.458488 
	C361.942596,80.002121 369.900970,80.003815 377.859314,80.005516 
	C378.423981,83.428299 378.988617,86.851082 379.533508,90.651360 
z"/>
<path fill="#ABBBE8" opacity="1.000000" stroke="none" 
	d="
M335.230530,80.641281 
	C330.679138,81.016823 326.277069,81.010658 321.405701,81.011658 
	C320.936401,74.616982 320.936401,68.215149 320.936401,61.409260 
	C325.684753,61.409260 330.731262,61.409260 336.438354,61.409260 
	C336.092865,67.561607 335.736328,73.910599 335.230530,80.641281 
z"/>
<path fill="#F0BFE8" opacity="1.000000" stroke="none" 
	d="
M368.184784,140.039886 
	C368.779633,145.807159 369.374481,151.574448 370.025055,157.882294 
	C363.785461,157.882294 357.725800,157.882294 351.263336,157.882294 
	C351.558533,152.387543 351.866608,146.653061 352.724945,140.468033 
	C358.245087,140.024948 363.214935,140.032425 368.184784,140.039886 
z"/>
<path fill="#AABCE9" opacity="1.000000" stroke="none" 
	d="
M285.700623,68.118301 
	C287.118500,61.924946 290.788849,58.511616 295.827637,58.564083 
	C300.317352,58.610832 303.334229,61.066307 304.902313,65.111420 
	C306.618835,69.539536 304.892365,74.245308 300.907959,76.867393 
	C294.194153,81.285652 286.898499,77.291115 285.700623,68.118301 
z"/>
<path fill="#AABCE9" opacity="1.000000" stroke="none" 
	d="
M443.658966,59.247257 
	C448.046509,61.615131 450.654083,65.268028 449.446259,69.577179 
	C448.574890,72.685997 445.915741,76.130981 443.095551,77.671898 
	C438.113556,80.393936 432.023468,77.107620 430.279266,71.792183 
	C428.546722,66.512230 431.471710,60.674927 436.966370,59.164024 
	C438.938873,58.621628 441.191406,59.097649 443.658966,59.247257 
z"/>
<path fill="#EEBEE7" opacity="1.000000" stroke="none" 
	d="
M334.302795,143.038666 
	C334.627777,149.097992 334.952759,155.157318 335.290924,161.462250 
	C329.612579,161.462250 324.425995,161.462250 319.386597,161.462250 
	C319.386597,155.376358 319.386597,149.649689 319.966675,143.469269 
	C325.132111,143.023254 329.717468,143.030960 334.302795,143.038666 
z"/>
<path fill="#B1BEEB" opacity="1.000000" stroke="none" 
	d="
M377.910156,79.581711 
	C369.900970,80.003815 361.942596,80.002121 353.519104,80.001419 
	C352.753387,76.226936 352.452789,72.451462 352.121613,68.292191 
	C360.342499,68.292191 368.316864,68.292191 376.555054,68.292191 
	C377.036011,72.009232 377.498535,75.583572 377.910156,79.581711 
z"/>
<path fill="#AFBDEA" opacity="1.000000" stroke="none" 
	d="
M398.706848,79.910034 
	C399.183655,75.643494 399.660492,71.376953 400.195251,66.591896 
	C407.417847,66.591896 414.464203,66.591896 421.970581,66.591896 
	C421.692261,70.644447 421.399689,74.904465 420.545654,79.582245 
	C412.891724,79.970016 405.799286,79.940025 398.706848,79.910034 
z"/>
<path fill="#ACB8E5" opacity="1.000000" stroke="none" 
	d="
M204.358368,72.611984 
	C195.744171,72.747086 187.258881,72.442764 178.359375,72.058929 
	C185.628998,65.391579 193.234192,58.674583 204.487274,55.053341 
	C204.487274,61.636860 204.487274,66.904709 204.358368,72.611984 
z"/>
<path fill="#CEC0EB" opacity="1.000000" stroke="none" 
	d="
M458.575989,99.414474 
	C465.272461,99.256058 471.852142,99.503868 478.828827,99.924896 
	C477.325409,105.207581 475.424957,110.317032 472.831818,115.719872 
	C467.763885,116.009369 463.388672,116.005470 459.013428,116.001572 
	C458.828674,110.607948 458.643951,105.214333 458.575989,99.414474 
z"/>
<path fill="#B9BCE9" opacity="1.000000" stroke="none" 
	d="
M398.505341,80.231674 
	C405.799286,79.940025 412.891724,79.970016 420.446930,80.001343 
	C420.868958,83.709885 420.828217,87.417099 420.669891,91.573532 
	C412.775146,92.019203 404.997925,92.015656 396.772949,92.014168 
	C396.984711,88.195259 397.644287,84.374290 398.505341,80.231674 
z"/>
<path fill="#B9BCE9" opacity="1.000000" stroke="none" 
	d="
M261.160706,77.393509 
	C266.115448,77.006676 270.995667,77.005882 276.328003,77.006401 
	C277.034851,80.073906 277.956207,83.265182 277.409119,86.180931 
	C276.170563,92.782127 270.483643,95.821472 264.337097,93.785522 
	C259.711151,92.253242 257.571381,86.513603 259.575928,80.860519 
	C259.955658,79.789665 260.576599,78.804352 261.160706,77.393509 
z"/>
<path fill="#EEBEE7" opacity="1.000000" stroke="none" 
	d="
M421.318878,143.883972 
	C421.918854,149.126572 422.518799,154.369186 423.190033,160.234451 
	C417.314758,160.640274 411.798584,161.021271 405.673065,161.444366 
	C406.015320,155.570206 406.330627,150.158524 407.260376,144.367310 
	C412.356140,143.953156 416.837494,143.918564 421.318878,143.883972 
z"/>
<path fill="#D9BEE9" opacity="1.000000" stroke="none" 
	d="
M278.351349,118.030746 
	C278.680756,122.423660 279.010162,126.816574 278.830200,131.605042 
	C274.241760,132.001755 270.162750,132.002930 266.083710,132.004089 
	C265.553162,129.123016 265.022614,126.241928 264.409515,122.912682 
	C260.093536,123.494278 256.001984,124.045639 251.444260,124.659805 
	C251.672592,122.462944 251.864853,120.613060 252.608353,118.385033 
	C261.556854,118.014847 269.954102,118.022797 278.351349,118.030746 
z"/>
<path fill="#C0BCE8" opacity="1.000000" stroke="none" 
	d="
M432.098114,103.002464 
	C431.656799,98.265526 431.215485,93.528580 430.735840,88.379959 
	C437.251770,88.379959 443.267700,88.379959 449.551544,88.379959 
	C449.261871,93.006393 448.976410,97.565620 448.101624,102.559578 
	C442.374268,102.997025 437.236176,102.999748 432.098114,103.002464 
z"/>
<path fill="#E4BFE9" opacity="1.000000" stroke="none" 
	d="
M514.135803,131.418365 
	C520.167786,131.002487 526.152283,130.921982 532.132080,131.053558 
	C533.663818,131.087265 535.180786,131.791046 536.840881,132.553497 
	C530.216553,135.877365 530.216553,135.877365 532.172668,145.510284 
	C527.642822,145.972366 523.088562,146.019409 518.038574,146.096069 
	C516.390747,141.361328 515.238647,136.596954 514.135803,131.418365 
z"/>
<path fill="#CEBCE7" opacity="1.000000" stroke="none" 
	d="
M278.467834,117.598083 
	C269.954102,118.022797 261.556854,118.014847 252.707214,118.008423 
	C252.254852,114.729546 252.254852,111.449142 252.254852,108.380669 
	C261.108673,108.380669 269.659790,108.380669 278.584351,108.380669 
	C278.584351,111.659744 278.584351,114.412575 278.467834,117.598083 
z"/>
<path fill="#B9BCE9" opacity="1.000000" stroke="none" 
	d="
M521.689636,91.863472 
	C530.162659,80.738304 545.070801,80.200783 555.053345,91.284599 
	C550.663513,92.735909 546.428528,93.557556 541.900146,94.214447 
	C539.442261,94.128128 537.277710,94.206573 534.811646,93.987701 
	C530.236633,93.081413 525.963135,92.472443 521.689636,91.863472 
z"/>
<path fill="#EEBEE7" opacity="1.000000" stroke="none" 
	d="
M505.664948,143.009781 
	C504.872528,148.552628 504.080078,154.095474 503.229401,160.045731 
	C497.940643,159.336151 493.225739,158.703583 488.031219,158.006668 
	C488.745148,153.173203 489.436035,148.495697 490.711121,143.413925 
	C496.085175,143.009689 500.875061,143.009735 505.664948,143.009781 
z"/>
<path fill="#F3C2EB" opacity="1.000000" stroke="none" 
	d="
M447.408142,145.027313 
	C447.514008,149.474930 447.883667,153.941803 447.561371,158.358185 
	C447.467438,159.645340 445.517731,161.651611 444.212677,161.831192 
	C440.683929,162.316742 437.044464,161.997482 433.129303,161.997482 
	C433.129303,156.400787 433.129303,151.165939 433.657227,145.470398 
	C438.592834,145.015564 443.000488,145.021439 447.408142,145.027313 
z"/>
<path fill="#C0BCE8" opacity="1.000000" stroke="none" 
	d="
M287.954651,102.003326 
	C287.510132,97.584984 287.065643,93.166641 286.581360,88.352997 
	C293.110138,88.352997 299.020142,88.352997 305.394318,88.352997 
	C305.086273,92.617226 304.779114,96.868912 303.893066,101.556778 
	C298.194336,101.996399 293.074493,101.999863 287.954651,102.003326 
z"/>
<path fill="#CEC0EB" opacity="1.000000" stroke="none" 
	d="
M488.924011,100.445457 
	C493.875305,99.713562 498.928802,99.357330 504.441772,99.004761 
	C505.595795,104.044548 506.290314,109.080673 506.455994,114.559418 
	C501.311005,115.002769 496.694946,115.003510 492.078857,115.004242 
	C491.061340,110.276535 490.043793,105.548828 488.924011,100.445457 
z"/>
<path fill="#DDBFE9" opacity="1.000000" stroke="none" 
	d="
M368.279144,139.637329 
	C363.214935,140.032425 358.245087,140.024948 352.834290,140.019638 
	C352.553101,134.972092 352.712891,129.922379 353.431763,124.436180 
	C358.591461,124.000656 363.192017,124.001633 367.792542,124.002609 
	C367.986206,129.079987 368.179871,134.157379 368.279144,139.637329 
z"/>
<path fill="#D5C1EC" opacity="1.000000" stroke="none" 
	d="
M367.865906,123.540680 
	C363.192017,124.001633 358.591461,124.000656 353.530273,123.999992 
	C353.050262,118.976738 353.030884,113.953163 353.085388,108.468307 
	C357.744476,108.006020 362.329773,108.005028 367.369080,108.006065 
	C367.861816,113.031647 367.900513,118.055199 367.865906,123.540680 
z"/>
<path fill="#F0BFE8" opacity="1.000000" stroke="none" 
	d="
M303.067444,145.000610 
	C303.067444,150.278900 303.067444,155.557205 303.067444,161.402527 
	C298.539886,161.402527 294.015442,161.402527 289.017334,161.402527 
	C289.017334,156.437683 289.017334,151.183273 289.545349,145.465103 
	C294.404724,145.001099 298.736084,145.000854 303.067444,145.000610 
z"/>
<path fill="#D0BFEA" opacity="1.000000" stroke="none" 
	d="
M393.134949,105.374207 
	C401.908752,105.002579 410.545013,105.000175 419.659058,104.997513 
	C420.224792,108.353905 420.312744,111.710541 419.810638,115.521408 
	C415.205627,115.983994 411.190735,115.992348 407.175842,116.000710 
	C407.097809,114.337852 407.019775,112.674988 406.939697,110.260101 
	C406.591522,108.926277 406.245453,108.344482 405.899384,107.762688 
	C405.624146,108.568115 405.348907,109.373543 405.073669,110.178970 
	C404.938019,110.731651 404.802399,111.284340 403.919281,111.929932 
	C399.281067,111.971184 395.390289,111.919525 391.499542,111.867859 
	C391.998840,109.826393 392.498108,107.784912 393.134949,105.374207 
z"/>
<path fill="#E6BEE8" opacity="1.000000" stroke="none" 
	d="
M560.846436,146.594666 
	C555.265808,147.051956 549.800171,147.095398 543.825439,147.193481 
	C540.735962,143.904938 540.572937,139.882126 543.370361,137.318481 
	C545.890686,135.008804 550.026794,133.009262 553.204102,133.327927 
	C555.760864,133.584381 558.348755,137.239975 560.149719,139.909073 
	C561.203674,141.471085 560.741577,144.056046 560.846436,146.594666 
z"/>
<path fill="#E4BFE9" opacity="1.000000" stroke="none" 
	d="
M246.533722,144.685272 
	C241.886444,145.580963 237.133865,146.147858 232.114349,147.011429 
	C229.890152,142.139252 227.932892,136.970398 226.473663,131.400360 
	C231.889832,131.002853 236.807968,131.006546 241.726105,131.010254 
	C243.293549,135.459000 244.860977,139.907745 246.533722,144.685272 
z"/>
<path fill="#BBBFEB" opacity="1.000000" stroke="none" 
	d="
M233.204956,76.445930 
	C235.686081,76.798988 237.912521,77.432068 240.158295,77.986877 
	C242.378326,78.535316 244.617889,79.004700 246.983154,79.902252 
	C245.665817,84.051491 244.214203,87.807236 242.049927,91.809570 
	C236.314743,92.038284 231.292252,92.020416 226.269745,92.002541 
	C228.499405,86.898918 230.729065,81.795296 233.204956,76.445930 
z"/>
<path fill="#D9C1EC" opacity="1.000000" stroke="none" 
	d="
M303.713257,116.020439 
	C303.634399,120.778648 303.555573,125.536865 302.849365,130.661896 
	C297.851532,131.020111 293.481049,131.011490 289.110535,131.002884 
	C288.887634,126.289574 288.664734,121.576256 288.961182,116.442001 
	C294.224823,116.020859 298.969025,116.020653 303.713257,116.020439 
z"/>
<path fill="#D9BEE9" opacity="1.000000" stroke="none" 
	d="
M241.731430,130.605408 
	C236.807968,131.006546 231.889832,131.002853 226.508667,131.000336 
	C225.388397,126.623779 224.731186,122.246017 224.590378,117.435905 
	C230.041412,117.003578 234.976044,117.003609 239.910675,117.003632 
	C240.519379,121.402611 241.128067,125.801598 241.731430,130.605408 
z"/>
<path fill="#C9B9E3" opacity="1.000000" stroke="none" 
	d="
M303.815735,115.572281 
	C298.969025,116.020653 294.224823,116.020859 289.055847,116.034927 
	C288.356171,111.673790 288.081177,107.298798 287.880432,102.463562 
	C293.074493,101.999863 298.194336,101.996399 303.725891,101.987305 
	C304.064484,106.362480 303.991333,110.743294 303.815735,115.572281 
z"/>
<path fill="#DABFEA" opacity="1.000000" stroke="none" 
	d="
M433.165955,131.006622 
	C433.018768,126.319885 432.871582,121.633148 433.280945,116.477493 
	C438.510681,116.009880 443.183807,116.011177 447.856934,116.012466 
	C447.835480,120.706993 447.814026,125.401512 447.248505,130.553467 
	C442.191620,131.009460 437.678802,131.008041 433.165955,131.006622 
z"/>
<path fill="#F0BFE8" opacity="1.000000" stroke="none" 
	d="
M472.731293,145.004608 
	C472.731293,149.923569 472.731293,154.842545 472.731293,159.875641 
	C467.989227,159.875641 463.436523,159.875641 458.802368,159.875641 
	C458.802368,155.025513 458.802368,150.441299 459.372192,145.428802 
	C464.205139,145.001892 468.468201,145.003250 472.731293,145.004608 
z"/>
<path fill="#E3BFE9" opacity="1.000000" stroke="none" 
	d="
M505.789185,142.584900 
	C500.875061,143.009735 496.085175,143.009689 490.856171,143.011902 
	C490.851471,138.601074 491.285889,134.188019 492.311401,129.387115 
	C497.489471,129.003540 502.076447,129.007812 506.663391,129.012085 
	C506.413391,133.394730 506.163422,137.777359 505.789185,142.584900 
z"/>
<path fill="#DEBBE5" opacity="1.000000" stroke="none" 
	d="
M334.427917,142.590393 
	C329.717468,143.030960 325.132111,143.023254 320.128113,143.028992 
	C319.804779,138.653519 319.900085,134.264603 320.531067,129.438049 
	C325.395264,128.994690 329.723785,128.988968 334.052307,128.983261 
	C334.219238,133.369537 334.386139,137.755829 334.427917,142.590393 
z"/>
<path fill="#C9B9E3" opacity="1.000000" stroke="none" 
	d="
M447.945953,115.576225 
	C443.183807,116.011177 438.510681,116.009880 433.365356,116.019547 
	C432.585693,111.991287 432.278198,107.952072 432.034424,103.457657 
	C437.236176,102.999748 442.374268,102.997025 447.938293,102.990128 
	C448.254486,107.037300 448.144714,111.088638 447.945953,115.576225 
z"/>
<path fill="#D9C1EC" opacity="1.000000" stroke="none" 
	d="
M334.158112,128.528503 
	C329.723785,128.988968 325.395264,128.994690 320.611694,128.999329 
	C320.236420,124.308395 320.316193,119.618538 320.967194,114.474709 
	C325.707825,114.013206 329.877197,114.005684 334.046600,113.998169 
	C334.119049,118.690025 334.191498,123.381874 334.158112,128.528503 
z"/>
<path fill="#E7C2EC" opacity="1.000000" stroke="none" 
	d="
M433.099701,131.466858 
	C437.678802,131.008041 442.191620,131.009460 447.143005,131.009277 
	C447.612366,135.381027 447.643219,139.754425 447.541138,144.577560 
	C443.000488,145.021439 438.592834,145.015564 433.740631,145.009521 
	C433.208557,140.648621 433.121002,136.287857 433.099701,131.466858 
z"/>
<path fill="#D9BEE9" opacity="1.000000" stroke="none" 
	d="
M506.771545,128.557617 
	C502.076447,129.007812 497.489471,129.003540 492.436035,129.000122 
	C491.958221,124.641708 491.946838,120.282448 492.007172,115.463715 
	C496.694946,115.003510 501.311005,115.002769 506.382538,115.003357 
	C506.851868,119.370827 506.865753,123.736984 506.771545,128.557617 
z"/>
<path fill="#E7C2EC" opacity="1.000000" stroke="none" 
	d="
M472.816071,144.544983 
	C468.468201,145.003250 464.205139,145.001892 459.480652,145.000977 
	C458.985382,140.308945 458.951569,135.616501 459.459229,130.463013 
	C464.246674,130.005905 468.492645,130.009827 472.738586,130.013748 
	C472.792694,134.704285 472.846771,139.394836 472.816071,144.544983 
z"/>
<path fill="#E4BFE9" opacity="1.000000" stroke="none" 
	d="
M421.403290,143.430450 
	C416.837494,143.918564 412.356140,143.953156 407.403564,143.982605 
	C406.977295,139.295486 407.022186,134.613510 407.594910,129.469955 
	C412.301575,129.011246 416.480408,129.014145 420.659241,129.017029 
	C420.935394,133.670334 421.211548,138.323639 421.403290,143.430450 
z"/>
<path fill="#D0BFEA" opacity="1.000000" stroke="none" 
	d="
M239.992126,116.546707 
	C234.976044,117.003609 230.041412,117.003578 224.652893,117.004868 
	C224.174545,112.975357 224.150085,108.944527 224.688049,104.462860 
	C230.204987,104.019279 235.159500,104.026535 240.114014,104.033783 
	C240.100540,108.052452 240.087051,112.071114 239.992126,116.546707 
z"/>
<path fill="#D0BFEA" opacity="1.000000" stroke="none" 
	d="
M529.860840,117.004547 
	C524.889832,117.003159 519.918884,117.001770 514.482605,117.001190 
	C514.605225,112.572098 515.193115,108.142204 516.356689,103.436272 
	C521.647888,103.440018 526.363403,103.719803 531.087769,104.428467 
	C530.684631,108.906418 530.272705,112.955482 529.860840,117.004547 
z"/>
<path fill="#C9BCE7" opacity="1.000000" stroke="none" 
	d="
M334.165283,113.580109 
	C329.877197,114.005684 325.707825,114.013206 321.119141,114.034622 
	C320.717407,110.055855 320.734894,106.063194 320.798126,101.681313 
	C325.367188,101.233521 329.890503,101.174957 334.650513,101.403961 
	C334.686096,105.515045 334.485046,109.338547 334.165283,113.580109 
z"/>
<path fill="#C4BEEA" opacity="1.000000" stroke="none" 
	d="
M240.304779,103.693115 
	C235.159500,104.026535 230.204987,104.019279 224.806519,104.013824 
	C224.908142,100.264046 225.453720,96.512466 226.134521,92.381714 
	C231.292252,92.020416 236.314743,92.038284 241.822754,92.082520 
	C241.704010,95.856735 241.099762,99.604591 240.304779,103.693115 
z"/>
<path fill="#E7C2EC" opacity="1.000000" stroke="none" 
	d="
M266.019287,132.453217 
	C270.162750,132.002930 274.241760,132.001755 278.729126,132.001526 
	C278.701050,137.359360 278.264648,142.716293 277.576782,148.389160 
	C274.487976,143.876953 269.791138,146.834167 265.548401,146.000580 
	C265.382996,141.634827 265.668945,137.268585 266.019287,132.453217 
z"/>
<path fill="#E7C2EC" opacity="1.000000" stroke="none" 
	d="
M289.031372,131.461578 
	C293.481049,131.011490 297.851532,131.020111 302.696777,131.042816 
	C303.216003,135.403976 303.260529,139.751053 303.186218,144.549377 
	C298.736084,145.000854 294.404724,145.001099 289.618683,145.002213 
	C289.093414,140.642136 289.022797,136.281204 289.031372,131.461578 
z"/>
<path fill="#D9BEE9" opacity="1.000000" stroke="none" 
	d="
M472.827515,129.555847 
	C468.492645,130.009827 464.246674,130.005905 459.543579,130.003906 
	C459.000824,125.642258 458.915222,121.278671 458.921509,116.458328 
	C463.388672,116.005470 467.763885,116.009369 472.608673,116.020126 
	C473.024261,120.383980 472.970337,124.740967 472.827515,129.555847 
z"/>
<path fill="#D0BFEA" opacity="1.000000" stroke="none" 
	d="
M555.450073,118.126991 
	C551.073242,117.606102 546.997559,116.883675 542.573975,115.724373 
	C543.241638,111.527664 544.257202,107.767845 545.715149,104.007484 
	C550.666260,103.675461 555.175049,103.343964 559.683777,103.012474 
	C558.372925,107.983475 557.062073,112.954468 555.450073,118.126991 
z"/>
<path fill="#D5BCE7" opacity="1.000000" stroke="none" 
	d="
M420.738312,128.563477 
	C416.480408,129.014145 412.301575,129.011246 407.675110,129.010834 
	C407.165375,124.981812 407.103210,120.950317 407.108459,116.459763 
	C411.190735,115.992348 415.205627,115.983994 419.692413,115.963882 
	C420.381958,120.004730 420.599670,124.057327 420.738312,128.563477 
z"/>
<path fill="#D0BFEA" opacity="1.000000" stroke="none" 
	d="
M370.300232,105.392502 
	C373.845673,105.004135 377.400238,105.003334 381.401367,105.003967 
	C382.874725,109.737785 383.901520,114.470161 384.897644,119.604263 
	C381.498932,120.012512 378.130890,120.019043 374.296692,120.038528 
	C372.656799,115.294350 371.483093,110.537216 370.300232,105.392502 
z"/>
<path fill="#C4BEEA" opacity="1.000000" stroke="none" 
	d="
M531.078918,103.999588 
	C526.363403,103.719803 521.647888,103.440018 516.531494,103.083473 
	C517.790833,99.402679 519.451111,95.798660 521.400513,92.029053 
	C525.963135,92.472443 530.236633,93.081413 534.687866,94.312103 
	C533.603394,97.955742 532.341187,100.977661 531.078918,103.999588 
z"/>
<path fill="#C4BEEA" opacity="1.000000" stroke="none" 
	d="
M559.752808,102.624069 
	C555.175049,103.343964 550.666260,103.675461 545.615112,103.610809 
	C544.113037,100.269508 543.153320,97.324356 542.193604,94.379204 
	C546.428528,93.557556 550.663513,92.735909 555.214600,91.563248 
	C556.961060,94.886711 558.391418,98.561195 559.752808,102.624069 
z"/>
<path fill="#D0BFEA" opacity="1.000000" stroke="none" 
	d="
M391.320190,112.174866 
	C395.390289,111.919525 399.281067,111.971184 403.646667,112.033791 
	C403.699432,115.183853 403.277344,118.322968 402.681885,121.788857 
	C398.295135,122.071671 394.081757,122.027702 389.395630,121.977760 
	C389.662231,118.808472 390.401550,115.645172 391.320190,112.174866 
z"/>
<path fill="#C9BCE7" opacity="1.000000" stroke="none" 
	d="
M341.335419,101.964035 
	C342.471985,101.232895 343.942139,100.599419 345.808136,99.952477 
	C346.152466,102.709297 346.152466,102.709297 341.335419,101.964035 
z"/>
<path fill="#C6BFEA" opacity="1.000000" stroke="none" 
	d="
M405.381531,110.136612 
	C405.348907,109.373543 405.624146,108.568115 405.899384,107.762688 
	C406.245453,108.344482 406.591522,108.926277 406.932068,109.843781 
	C406.514160,110.151085 406.101776,110.122673 405.381531,110.136612 
z"/>
<path fill="#D0BFEA" opacity="1.000000" stroke="none" 
	d="
M106.894646,114.696701 
	C109.128273,115.464111 111.350563,116.854736 113.597404,116.895607 
	C126.146278,117.123825 138.701096,117.025520 151.674011,117.466568 
	C150.205978,123.181984 151.232208,128.074463 154.103973,132.716690 
	C152.745407,133.143417 151.388626,133.933304 150.028000,133.939957 
	C138.158203,133.998138 126.287750,133.916138 113.989853,133.461075 
	C112.622429,132.772629 111.697777,132.345612 110.740280,132.250992 
	C105.982979,131.780823 103.153282,128.994781 102.300308,124.552002 
	C101.501350,120.390556 102.699135,116.737991 106.894646,114.696701 
z"/>
<path fill="#0A132F" opacity="1.000000" stroke="none" 
	d="
M107.093513,114.410202 
	C102.699135,116.737991 101.501350,120.390556 102.300308,124.552002 
	C103.153282,128.994781 105.982979,131.780823 110.740280,132.250992 
	C111.697777,132.345612 112.622429,132.772629 113.486786,133.407562 
	C105.586021,139.611969 100.295471,139.627274 92.540756,133.660461 
	C89.661400,128.863037 86.913406,124.263329 89.865982,118.375153 
	C95.904900,109.143829 102.796677,107.371269 112.088013,112.543510 
	C110.336906,113.120514 108.814644,113.622116 107.093513,114.410202 
z"/>
<path fill="#0C1530" opacity="1.000000" stroke="none" 
	d="
M154.407135,132.892212 
	C151.232208,128.074463 150.205978,123.181984 152.155975,117.485565 
	C155.593491,112.008354 160.134796,109.165543 166.395996,110.022964 
	C168.732101,110.342880 171.002304,111.144028 173.088409,111.671585 
	C170.030197,114.047714 167.251953,116.206314 164.388214,118.685333 
	C162.112061,127.002251 165.667831,131.867935 173.974197,132.344849 
	C174.647095,132.383484 175.287781,132.983398 175.867401,133.621048 
	C167.415115,139.840149 161.579147,139.604324 154.407135,132.892212 
z"/>
<path fill="#191E3B" opacity="1.000000" stroke="none" 
	d="
M139.949402,153.625458 
	C133.450684,158.928894 135.007019,168.428680 140.391205,171.892624 
	C145.162201,174.962021 150.389893,174.530655 154.833878,170.315659 
	C155.710159,169.484528 156.782776,168.858887 157.797714,168.188202 
	C157.815063,168.176743 158.248108,168.794342 158.454010,169.450287 
	C150.406631,178.948013 142.384872,178.937103 134.441299,169.457687 
	C130.876053,174.303253 126.569756,177.945435 120.078697,176.981125 
	C115.339188,176.277039 111.724197,173.880814 109.473145,169.152542 
	C110.337341,169.099533 111.901733,168.851639 112.492134,169.496078 
	C117.900856,175.399857 123.777100,176.355881 128.964569,171.952728 
	C134.172363,167.532349 134.007416,161.084702 128.551971,154.975021 
	C128.241364,154.627151 128.083832,154.142609 127.774811,153.362701 
	C131.759476,153.085663 135.824387,153.167587 139.949402,153.625458 
z"/>
<path fill="#0A132F" opacity="1.000000" stroke="none" 
	d="
M541.900146,94.214447 
	C543.153320,97.324356 544.113037,100.269508 545.172729,103.611343 
	C544.257202,107.767845 543.241638,111.527664 542.175171,115.647354 
	C538.575012,119.512062 535.025757,123.016907 531.476501,126.521751 
	C530.985962,126.301392 530.495361,126.081024 530.004822,125.860664 
	C530.004822,123.202499 530.004822,120.544327 529.932861,117.445358 
	C530.272705,112.955482 530.684631,108.906418 531.087769,104.428467 
	C532.341187,100.977661 533.603394,97.955742 534.989380,94.609421 
	C537.277710,94.206573 539.442261,94.128128 541.900146,94.214447 
z"/>
</svg>